<svg width="66" height="7" viewBox="0 0 66 7" fill="none" xmlns="http://www.w3.org/2000/svg">
<path d="M1.55459 4.72597H0.213867V0.708862H1.27019C1.59521 0.708862 1.87958 0.749446 2.04209 0.8306C2.24523 0.911753 2.36711 1.03348 2.44837 1.19579C2.52962 1.3581 2.61088 1.5204 2.61088 1.72328C2.61088 2.12905 2.40775 2.41309 2.00148 2.57539C2.28587 2.61597 2.52963 2.7377 2.69214 2.94058C2.85465 3.14347 2.9359 3.34635 2.9359 3.58981C2.9359 3.7927 2.89528 3.99558 2.7734 4.15789C2.65152 4.32019 2.52962 4.44192 2.32649 4.56365C2.12335 4.68538 1.8796 4.72597 1.55459 4.72597ZM1.27019 1.19579H0.782658V2.41309H1.14831C1.47333 2.41309 1.67646 2.37252 1.79834 2.25079C1.92022 2.12906 2.00148 1.96675 2.00148 1.80444C2.00148 1.39867 1.75772 1.19579 1.27019 1.19579ZM1.31081 2.94058H0.782658V4.19846H1.35145C1.67647 4.19846 1.87959 4.1579 2.00148 4.11732C2.12336 4.07674 2.20462 3.99559 2.28587 3.87386C2.36713 3.75213 2.40775 3.67096 2.40775 3.54923C2.40775 3.4275 2.36713 3.30578 2.28587 3.22463C2.20462 3.14347 2.12337 3.06232 1.96086 2.98116C1.79835 2.90001 1.5952 2.94058 1.31081 2.94058Z" fill="#C30F23"/>
<path d="M5.69838 3.42676H3.82953C3.82953 3.67022 3.91078 3.8731 4.07329 4.03541C4.2358 4.19771 4.43893 4.27887 4.6827 4.27887C5.00771 4.27887 5.33275 4.15713 5.61714 3.95425V4.48175C5.45463 4.60348 5.29212 4.68464 5.12961 4.72522C4.9671 4.76579 4.80458 4.80636 4.56082 4.80636C4.27643 4.80636 4.03266 4.76579 3.87015 4.64406C3.70764 4.52233 3.54514 4.36002 3.42326 4.15713C3.30138 3.95425 3.26074 3.7108 3.26074 3.46734C3.26074 3.06157 3.38264 2.73696 3.58578 2.4935C3.82954 2.25004 4.11391 2.1283 4.47956 2.1283C4.8452 2.1283 5.12961 2.25004 5.33275 2.4935C5.53588 2.73696 5.65776 3.06157 5.65776 3.46734V3.42676H5.69838ZM3.87015 3.10215H5.21087C5.21087 2.89926 5.12961 2.73695 5.00773 2.61522C4.88585 2.49349 4.76395 2.45292 4.56082 2.45292C4.35768 2.45292 4.23581 2.49349 4.11393 2.61522C3.99205 2.73695 3.91078 2.89926 3.87015 3.10215Z" fill="#C30F23"/>
<path d="M7.9329 3.10229V4.23843C7.9329 4.31959 7.97353 4.36016 8.01416 4.36016C8.09541 4.36016 8.17667 4.31959 8.29855 4.23843V4.56304C8.17667 4.6442 8.09541 4.68478 8.01416 4.72536C7.9329 4.76594 7.85166 4.76593 7.7704 4.76593C7.52664 4.76593 7.40476 4.68478 7.36413 4.4819C7.161 4.6442 6.91723 4.72536 6.67346 4.72536C6.47033 4.72536 6.34846 4.68477 6.22657 4.56304C6.10469 4.44131 6.02344 4.27902 6.02344 4.11671C6.02344 3.9544 6.06405 3.79209 6.18593 3.67036C6.30781 3.54863 6.47032 3.42689 6.71408 3.34574L7.36413 3.10229V2.98055C7.36413 2.65594 7.20162 2.49364 6.8766 2.49364C6.59221 2.49364 6.30783 2.65594 6.02344 2.93997V2.3719C6.22657 2.12844 6.51094 2.00671 6.91722 2.00671C7.20161 2.00671 7.44538 2.08787 7.60788 2.25018C7.64851 2.29075 7.72978 2.37191 7.7704 2.45306C7.81103 2.53421 7.85166 2.61537 7.85166 2.69652C7.93292 2.7371 7.9329 2.89941 7.9329 3.10229ZM7.40475 4.19786V3.4269L7.03912 3.54862C6.87661 3.62978 6.75472 3.67036 6.67346 3.75151C6.59221 3.83266 6.55159 3.91382 6.55159 4.03555C6.55159 4.15728 6.59221 4.23844 6.67346 4.31959C6.75472 4.40075 6.83598 4.44132 6.95786 4.44132C7.12037 4.40074 7.28287 4.31959 7.40475 4.19786Z" fill="#C30F23"/>
<path d="M10.4515 4.72538V4.40076C10.3296 4.52249 10.2077 4.60365 10.0858 4.6848C9.92333 4.76595 9.80143 4.76595 9.63892 4.76595C9.47641 4.76595 9.31391 4.72537 9.19203 4.64422C9.07015 4.56307 8.94827 4.44134 8.86702 4.31961C8.78576 4.1573 8.74512 3.95441 8.74512 3.58922V2.08789H9.27329V3.58922C9.27329 3.87326 9.31391 4.07614 9.39517 4.15729C9.47642 4.27902 9.5983 4.31961 9.80144 4.31961C10.0452 4.31961 10.2483 4.19787 10.4515 3.95441V2.08789H10.9796V4.72538H10.4515Z" fill="#C30F23"/>
<path d="M11.3457 2.4935L12.3208 1.51965V2.04716H13.1739V2.53407H12.3208V3.83253C12.3208 4.11657 12.4426 4.27888 12.6864 4.27888C12.8895 4.27888 13.052 4.19773 13.2958 4.076V4.56291C13.0927 4.68464 12.8895 4.72523 12.6458 4.72523C12.402 4.72523 12.1989 4.64407 12.0364 4.52234C11.9957 4.48177 11.9551 4.44118 11.9145 4.4006C11.8739 4.36003 11.8739 4.27887 11.8332 4.19772C11.7926 4.11657 11.7926 3.95427 11.7926 3.71081V2.53407H11.3457V2.4935Z" fill="#C30F23"/>
<path d="M15.3276 2.04736H15.8964L14.0276 6.02388H13.4588L14.3526 4.11678L13.3369 2.04736H13.9463L14.6776 3.5487L15.3276 2.04736Z" fill="#C30F23"/>
<path d="M16.1396 3.14282H17.5616V3.71091H16.1396V3.14282Z" fill="#C30F23"/>
<path d="M17.8867 0.70813H21.2588V1.23563H19.8775V4.72524H19.2681V1.19506H17.8867V0.70813Z" fill="#C30F23"/>
<path d="M23.9806 3.42676H22.1118C22.1118 3.67022 22.193 3.8731 22.3555 4.03541C22.518 4.19771 22.7212 4.27887 22.9649 4.27887C23.2899 4.27887 23.615 4.15713 23.8994 3.95425V4.48175C23.7369 4.60348 23.5743 4.68464 23.4118 4.72522C23.2493 4.76579 23.0868 4.80636 22.843 4.80636C22.5587 4.80636 22.3149 4.76579 22.1524 4.64406C21.9899 4.52233 21.8274 4.36002 21.7055 4.15713C21.5836 3.95425 21.543 3.7108 21.543 3.46734C21.543 3.06157 21.6649 2.73696 21.868 2.4935C22.1118 2.25004 22.3961 2.1283 22.7618 2.1283C23.1274 2.1283 23.4118 2.25004 23.615 2.4935C23.8181 2.73696 23.94 3.06157 23.94 3.46734V3.42676H23.9806ZM22.1118 3.10215H23.4525C23.4525 2.89926 23.3712 2.73695 23.2493 2.61522C23.1274 2.49349 23.0056 2.45292 22.8024 2.45292C22.5993 2.45292 22.4774 2.49349 22.3555 2.61522C22.2336 2.73695 22.1524 2.89926 22.1118 3.10215Z" fill="#C30F23"/>
<path d="M26.4993 4.0762V4.60369C26.2556 4.68485 25.9712 4.766 25.7274 4.766C25.3212 4.766 24.9961 4.64427 24.7524 4.40081C24.5086 4.15735 24.3867 3.83274 24.3867 3.42697C24.3867 3.0212 24.5086 2.69659 24.7524 2.41255C24.9961 2.16909 25.3212 2.04736 25.6868 2.04736C25.8087 2.04736 25.9306 2.04737 26.0525 2.08794C26.1743 2.12852 26.2962 2.16909 26.4587 2.25025V2.81832C26.1743 2.65601 25.9306 2.57486 25.7274 2.57486C25.4837 2.57486 25.2805 2.65601 25.1586 2.81832C24.9961 2.98063 24.9149 3.18351 24.9149 3.46755C24.9149 3.75159 24.9961 3.95447 25.1586 4.11678C25.3212 4.27909 25.5243 4.36023 25.8087 4.36023C26.0118 4.27908 26.2556 4.19793 26.4993 4.0762Z" fill="#C30F23"/>
<path d="M27.1089 0.70813H27.637V2.41236C27.8402 2.12832 28.1246 2.00659 28.4496 2.00659C28.6121 2.00659 28.7746 2.04716 28.9371 2.12832C29.059 2.20947 29.1809 2.33121 29.2621 2.49352C29.3434 2.65582 29.384 2.8587 29.384 3.18331V4.68466H28.8559V3.06159C28.8559 2.8587 28.8152 2.6964 28.6934 2.61524C28.6121 2.49351 28.4902 2.45294 28.3277 2.45294C28.2058 2.45294 28.1246 2.49351 28.0027 2.53408C27.9214 2.57466 27.7996 2.6964 27.6777 2.81813V4.72524H27.1495V0.70813H27.1089Z" fill="#C30F23"/>
<path d="M31.7809 0.70813H32.3497V4.68466C32.3497 5.04985 32.3091 5.33389 32.2278 5.49619C32.1466 5.6585 32.0247 5.82081 31.8622 5.90196C31.6996 6.02369 31.4965 6.06426 31.2527 6.06426C31.2121 6.06426 31.1715 6.06426 31.0496 6.06426L30.9277 5.53677H31.0902C31.2527 5.53677 31.3746 5.53677 31.4559 5.49619C31.5371 5.45562 31.6184 5.37446 31.659 5.29331C31.6996 5.21216 31.7403 4.96869 31.7403 4.64408V0.70813H31.7809Z" fill="#C30F23"/>
<path d="M34.8279 3.10229V4.23843C34.8279 4.31959 34.8686 4.36016 34.9092 4.36016C34.9905 4.36016 35.0717 4.31959 35.1936 4.23843V4.56304C35.0717 4.6442 34.9905 4.68478 34.9092 4.72536C34.8279 4.76594 34.7467 4.76593 34.6654 4.76593C34.4217 4.76593 34.2998 4.68478 34.2592 4.4819C34.056 4.6442 33.8123 4.72536 33.5685 4.72536C33.3654 4.72536 33.2435 4.68477 33.1216 4.56304C32.9997 4.44131 32.9185 4.27902 32.9185 4.11671C32.9185 3.9544 32.9591 3.79209 33.081 3.67036C33.2029 3.54863 33.3654 3.42689 33.6091 3.34574L34.2592 3.10229V2.98055C34.2592 2.65594 34.0967 2.49364 33.7716 2.49364C33.4873 2.49364 33.2028 2.65594 32.9185 2.93997V2.3719C33.1216 2.12844 33.406 2.00671 33.8123 2.00671C34.0967 2.00671 34.3404 2.08787 34.5029 2.25018C34.5436 2.29075 34.6248 2.37191 34.6654 2.45306C34.7061 2.53421 34.7467 2.61537 34.7467 2.69652C34.8279 2.7371 34.8279 2.89941 34.8279 3.10229ZM34.2998 4.19786V3.4269L33.9341 3.54862C33.7716 3.62978 33.6498 3.67036 33.5685 3.75151C33.4873 3.83266 33.4466 3.91382 33.4466 4.03555C33.4466 4.15728 33.4873 4.23844 33.5685 4.31959C33.6498 4.40075 33.731 4.44132 33.8529 4.44132C34.0154 4.40074 34.1779 4.31959 34.2998 4.19786Z" fill="#C30F23"/>
<path d="M35.6406 6.06441V2.08789H36.575C37.0626 2.08789 37.4282 2.20962 37.672 2.45308C37.9158 2.69654 38.0783 3.02115 38.0783 3.42692C38.0783 3.83269 37.9564 4.1573 37.7126 4.40076C37.4689 4.64422 37.1438 4.76595 36.7782 4.76595C36.6157 4.76595 36.4126 4.72537 36.2094 4.64422V6.06441H35.6406ZM36.5344 2.5748H36.1688V4.19787C36.3313 4.27903 36.4938 4.31961 36.6563 4.31961C36.9001 4.31961 37.1032 4.23846 37.2657 4.07615C37.4282 3.91384 37.5095 3.67038 37.5095 3.42692C37.5095 3.26461 37.4688 3.1023 37.3876 2.98057C37.3063 2.85884 37.2251 2.73712 37.1032 2.69654C36.9813 2.57481 36.7782 2.5748 36.5344 2.5748Z" fill="#C30F23"/>
<path d="M40.2718 3.10229V4.23843C40.2718 4.31959 40.3124 4.36016 40.353 4.36016C40.4343 4.36016 40.5155 4.31959 40.6374 4.23843V4.56304C40.5155 4.6442 40.4343 4.68478 40.353 4.72536C40.2718 4.76594 40.1905 4.76593 40.1093 4.76593C39.8655 4.76593 39.7436 4.68478 39.703 4.4819C39.4999 4.6442 39.2561 4.72536 39.0123 4.72536C38.8092 4.72536 38.6873 4.68477 38.5654 4.56304C38.4436 4.44131 38.3623 4.27902 38.3623 4.11671C38.3623 3.9544 38.4029 3.79209 38.5248 3.67036C38.6467 3.54863 38.8092 3.42689 39.053 3.34574L39.703 3.10229V2.98055C39.703 2.65594 39.5405 2.49364 39.2155 2.49364C38.9311 2.49364 38.6467 2.65594 38.3623 2.93997V2.3719C38.5654 2.12844 38.8498 2.00671 39.2561 2.00671C39.5405 2.00671 39.7843 2.08787 39.9468 2.25018C39.9874 2.29075 40.0686 2.37191 40.1093 2.45306C40.1499 2.53421 40.1905 2.61537 40.1905 2.69652C40.1905 2.77768 40.2718 2.89941 40.2718 3.10229ZM39.7436 4.19786V3.4269L39.378 3.54862C39.2155 3.62978 39.0936 3.67036 39.0123 3.75151C38.9311 3.83266 38.8905 3.91382 38.8905 4.03555C38.8905 4.15728 38.9311 4.23844 39.0123 4.31959C39.0936 4.40075 39.1748 4.44132 39.2967 4.44132C39.4592 4.40074 39.6218 4.31959 39.7436 4.19786Z" fill="#C30F23"/>
<path d="M41.6535 2.04722V2.37183C41.8973 2.12837 42.141 1.96606 42.4661 1.96606C42.6286 1.96606 42.7911 2.00665 42.913 2.0878C43.0349 2.16896 43.1567 2.29068 43.238 2.45299C43.3192 2.6153 43.3599 2.81817 43.3599 3.14279V4.64413H42.8317V3.14279C42.8317 2.85875 42.7911 2.69645 42.7098 2.57472C42.6286 2.45299 42.5067 2.41241 42.3036 2.41241C42.0598 2.41241 41.8567 2.53414 41.6942 2.7776V4.64413H41.166V2.00664H41.6535V2.04722Z" fill="#C30F23"/>
<path d="M49.2506 3.792V4.44123C48.8443 4.68469 48.3568 4.76584 47.788 4.76584C47.3411 4.76584 46.9755 4.6847 46.6504 4.48181C46.3254 4.31951 46.0816 4.03546 45.9191 3.75142C45.7566 3.42681 45.6348 3.1022 45.6348 2.73701C45.6348 2.16893 45.8379 1.68202 46.2442 1.27625C46.6504 0.870486 47.1786 0.667603 47.788 0.667603C48.1943 0.667603 48.6818 0.789328 49.21 0.992211V1.60086C48.7224 1.31683 48.2755 1.1951 47.8286 1.1951C47.3817 1.1951 46.9755 1.3574 46.6911 1.64144C46.4067 1.92548 46.2442 2.29066 46.2442 2.73701C46.2442 3.18335 46.4067 3.54855 46.6911 3.83258C46.9755 4.11662 47.3817 4.23835 47.8286 4.23835C48.2755 4.23835 48.763 4.07604 49.2506 3.792Z" fill="#C30F23"/>
<path d="M51.1196 2.04736C51.5259 2.04736 51.8509 2.16909 52.1353 2.45313C52.4197 2.69659 52.5416 3.0212 52.5416 3.42697C52.5416 3.79216 52.4197 4.11677 52.1353 4.36023C51.8509 4.60369 51.5259 4.72543 51.1196 4.72543C50.7133 4.72543 50.3883 4.60369 50.1446 4.36023C49.8602 4.11677 49.7383 3.79216 49.7383 3.38639C49.7383 2.98062 49.8602 2.69659 50.1446 2.41255C50.3883 2.20967 50.7133 2.04736 51.1196 2.04736ZM51.1196 2.53428C50.8759 2.53428 50.6727 2.61543 50.5102 2.77774C50.3477 2.94005 50.2664 3.14293 50.2664 3.38639C50.2664 3.62985 50.3477 3.83273 50.5102 3.99504C50.6727 4.15735 50.8758 4.2385 51.1602 4.2385C51.404 4.2385 51.6071 4.15735 51.8103 3.99504C51.9728 3.83273 52.054 3.62985 52.054 3.38639C52.054 3.14293 51.9728 2.94005 51.8103 2.77774C51.5665 2.61543 51.3634 2.53428 51.1196 2.53428Z" fill="#C30F23"/>
<path d="M53.3943 4.07605C53.4756 4.07605 53.5568 4.11662 53.6381 4.1572C53.7194 4.23835 53.76 4.31951 53.76 4.40066C53.76 4.48181 53.7194 4.56297 53.6381 4.64412C53.5568 4.72528 53.4756 4.72528 53.3943 4.72528C53.3131 4.72528 53.2318 4.6847 53.1506 4.64412C53.0693 4.56297 53.0693 4.48181 53.0693 4.40066C53.0693 4.31951 53.11 4.23835 53.1506 4.1572C53.1912 4.11662 53.2725 4.07605 53.3943 4.07605Z" fill="#C30F23"/>
<path d="M54.3293 5.41511V5.29339C54.4106 5.21223 54.4918 5.13108 54.4918 5.04992C54.4918 4.96877 54.5324 4.84704 54.5324 4.72531C54.3293 4.68474 54.248 4.52242 54.248 4.36011C54.248 4.23838 54.2887 4.15724 54.3699 4.07608C54.4512 3.99493 54.5324 3.95435 54.6137 3.95435C54.7356 3.95435 54.8168 3.99493 54.8981 4.11666C54.9794 4.23839 55.02 4.36012 55.02 4.52243C55.02 4.72531 54.9387 4.92819 54.8168 5.0905C54.695 5.21223 54.5324 5.33396 54.3293 5.41511Z" fill="#C30F23"/>
<path d="M57.4166 0.70813H57.9854V4.19773H59.773V4.72524H57.376V0.70813H57.4166Z" fill="#C30F23"/>
<path d="M59.8545 2.4935L60.8295 1.51965V2.04716H61.6827V2.53407H60.8295V3.83253C60.8295 4.11657 60.9514 4.27888 61.1952 4.27888C61.3983 4.27888 61.5608 4.19773 61.8046 4.076V4.56291C61.6015 4.68464 61.3983 4.72523 61.1545 4.72523C60.9108 4.72523 60.7076 4.64407 60.5451 4.52234C60.5045 4.48177 60.4639 4.44118 60.4233 4.4006C60.3826 4.36003 60.3826 4.27887 60.342 4.19772C60.3014 4.11657 60.3014 3.95427 60.3014 3.71081V2.53407H59.8545V2.4935Z" fill="#C30F23"/>
<path d="M63.9173 0.70813H64.4454V4.72524H63.3079C62.9016 4.72524 62.6172 4.6035 62.3734 4.36004C62.1297 4.11658 62.0078 3.79197 62.0078 3.3862C62.0078 2.98043 62.1297 2.6964 62.3734 2.41236C62.6172 2.1689 62.9422 2.04717 63.3079 2.04717C63.4704 2.04717 63.6735 2.08774 63.8767 2.1689V0.70813H63.9173ZM63.9173 4.27889V2.61524C63.7548 2.53409 63.5923 2.49352 63.4298 2.49352C63.186 2.49352 62.9422 2.57466 62.8204 2.73697C62.6578 2.89927 62.5766 3.14274 62.5766 3.42678C62.5766 3.71081 62.6578 3.9137 62.7797 4.03543C62.861 4.11658 62.9422 4.19773 63.0235 4.19773C63.1047 4.23831 63.2673 4.23831 63.511 4.23831H63.9173V4.27889Z" fill="#C30F23"/>
<path d="M65.4207 4.07605C65.502 4.07605 65.5832 4.11662 65.6645 4.1572C65.7457 4.23835 65.7864 4.31951 65.7864 4.40066C65.7864 4.48181 65.7457 4.56297 65.6645 4.64412C65.5832 4.72528 65.502 4.72528 65.4207 4.72528C65.3395 4.72528 65.2582 4.6847 65.177 4.64412C65.0957 4.56297 65.0957 4.48181 65.0957 4.40066C65.0957 4.31951 65.1363 4.23835 65.177 4.1572C65.2582 4.11662 65.3395 4.07605 65.4207 4.07605Z" fill="#C30F23"/>
</svg>
