<svg width="17" height="46" viewBox="0 0 17 46" fill="none" xmlns="http://www.w3.org/2000/svg">
<path d="M1.74285 21.1001H0.686523V0.000244141H1.74285C3.44919 0.000244141 4.87112 1.42044 4.87112 3.12466V17.9757C4.87112 19.7205 3.44919 21.1001 1.74285 21.1001Z" fill="#C30F23"/>
<path d="M10.5996 45.0402H6.41504V0H7.47134C9.17768 0 10.5996 1.42019 10.5996 3.12441V45.0402Z" fill="#C30F23"/>
<path d="M12.1436 45.0402H16.3282V0H15.2719C13.5655 0 12.1436 1.42019 12.1436 3.12441V45.0402Z" fill="#C30F23"/>
<path d="M2.18974 45.4053H0.686523V24.3054H2.18974C3.69294 24.3054 4.91177 25.5227 4.91177 27.0241V42.7273C4.87114 44.188 3.65232 45.4053 2.18974 45.4053Z" fill="#C30F23"/>
</svg>
