<svg width="114" height="11" viewBox="0 0 114 11" fill="none" xmlns="http://www.w3.org/2000/svg">
<path d="M4.79401 10.6511C4.22523 10.8134 3.45332 10.854 2.51889 10.854H0V0.709839H2.2345C4.83464 0.709839 6.4191 1.44023 6.4191 3.26618C6.4191 3.95599 6.17534 4.52405 5.64718 4.9704C5.40342 5.17328 5.15966 5.33559 4.83464 5.41674C5.32217 5.57905 5.72844 5.78194 6.01283 6.06597C6.62224 6.59347 6.90663 7.24269 6.90663 8.01365C6.90663 8.66288 6.7035 9.27154 6.29722 9.75846C5.93158 10.2048 5.40342 10.5294 4.79401 10.6511ZM3.61582 1.846C3.41269 1.72426 2.96579 1.64311 2.27513 1.64311C2.19387 1.64311 2.07198 1.64311 1.9501 1.64311V5.05156H1.99073C3.00641 5.05156 3.5752 4.88925 3.85959 4.64579C4.14398 4.40233 4.30649 3.99655 4.30649 3.34733C4.30649 2.90098 4.22524 2.53579 4.10335 2.33291C4.06273 2.08945 3.85959 1.92715 3.61582 1.846ZM2.27513 5.98482C2.19387 5.98482 2.07199 5.98482 1.99073 5.98482V9.88019H2.88454C3.61583 9.88019 4.06273 9.79903 4.34712 9.515C4.67214 9.19038 4.83464 8.74403 4.83464 8.01365C4.83464 7.28327 4.63151 6.79636 4.30649 6.51232C3.94085 6.14713 3.33144 5.98482 2.27513 5.98482Z" fill="#C30F23"/>
<path d="M13.4883 1.60204H12.5132V3.34684V3.63088V5.05107H13.1632H15.2352V5.98433H13.2039H12.5132V6.87702V7.0799V7.44509V8.09432V9.92028H13.4476H16.6978V10.8535H10.5225V8.09432V7.44509V6.87702V3.38742V0.709351H16.6978V1.64262H13.4883V1.60204Z" fill="#C30F23"/>
<path d="M26.4084 10.8535C25.8396 9.43335 25.5958 8.90586 25.5958 8.90586L24.9458 7.32337H21.8581L20.5174 10.8535H19.3799L23.5645 0.709351H24.2145L28.5616 10.8535H26.4084ZM23.402 3.50916L22.2238 6.43067H24.6208L23.402 3.50916Z" fill="#C30F23"/>
<path d="M39.3672 9.51451C39.0016 9.92027 38.5547 10.2855 37.9859 10.5289C37.4171 10.7724 36.7264 10.8941 35.9951 10.8941C35.1013 10.8941 34.3701 10.7318 33.72 10.4478C33.07 10.1232 32.6231 9.71739 32.3387 9.23046C32.0543 8.74354 31.8918 8.05374 31.9731 7.24221L32.0543 6.26837V3.34684V0.74993H34.0044V3.34684V6.30895C34.0044 6.79587 34.0044 7.24221 34.0044 7.6074C34.0044 7.97259 34.0451 8.21605 34.0857 8.41893C34.1669 8.78412 34.3701 9.10874 34.7357 9.39278C35.1014 9.67682 35.6295 9.79855 36.3202 9.79855C36.8483 9.79855 37.3359 9.71739 37.7828 9.51451C38.2297 9.31162 38.5547 9.06817 38.7578 8.78413C38.961 8.50009 39.1235 8.21605 39.1641 7.93202C39.2047 7.6074 39.286 7.07991 39.286 6.34953V3.14395V0.709351H40.2204V3.26569V6.43067C40.2204 7.24221 40.1391 7.85086 40.0579 8.25663C39.936 8.66239 39.6516 9.10874 39.3672 9.51451Z" fill="#C30F23"/>
<path d="M50.7432 1.60184H49.4837V8.01296V10.8533H47.5336V8.01296V1.60184H46.4367H43.5928L43.6334 0.668579H53.5464V1.60184H50.7432Z" fill="#C30F23"/>
<path d="M60.4128 6.83624V10.8533H58.4627V6.91739L54.5625 0.668579H57.0001L59.9253 5.74067L62.8505 0.668579H64.1505L60.4128 6.83624Z" fill="#C30F23"/>
<path d="M67.4009 8.5406V7.07983H71.0167V8.5406H67.4009Z" fill="#C30F23"/>
<path d="M81.6201 1.60184H80.3607V8.01296V10.8533H78.4106V8.01296V1.60184H77.3136H74.4697L74.5104 0.668579H84.4234V1.60184H81.6201Z" fill="#C30F23"/>
<path d="M88.811 1.60204H87.836V3.34684V3.63088V5.05107H88.486H90.558V5.98433H88.5266H87.836V6.87702V7.0799V7.44509V8.09432V9.92028H88.7704H92.0206V10.8535H85.8452V8.09432V7.44509V6.87702V3.38742V0.709351H92.0206V1.64262H88.811V1.60204Z" fill="#C30F23"/>
<path d="M96.2054 9.51451C95.3116 8.58124 94.8647 7.40452 94.8647 5.94376C94.8647 4.96992 95.0679 4.07722 95.4742 3.22511C95.8804 2.373 96.4898 1.72377 97.2211 1.318C97.9524 0.912234 98.765 0.709351 99.6588 0.709351C100.39 0.709351 101.04 0.87166 101.65 1.1557C102.218 1.43973 102.665 1.76435 103.031 2.21069L103.071 2.49474L102.462 3.10339C102.096 2.61647 101.975 2.45415 101.812 2.33242C101.243 1.88608 100.593 1.6832 99.8619 1.6832C98.9681 1.6832 98.3181 2.04838 97.7899 2.73819C97.3024 3.46857 97.018 4.52357 97.018 5.94376C97.018 7.28279 97.3024 8.25663 97.8712 8.94643C98.44 9.63624 99.1306 9.96085 99.9838 9.96085C100.431 9.96085 100.878 9.83912 101.365 9.63623C101.731 9.47393 102.015 9.1899 102.462 8.54067L103.193 9.27104C102.137 10.4478 101.04 10.9753 99.6588 10.9753C98.3181 10.8535 97.1399 10.4072 96.2054 9.51451Z" fill="#C30F23"/>
<path d="M112.05 10.8533V5.98412H107.54V10.8533H105.59V0.709146H107.54V5.05086H112.05V0.668579H114V10.8128H112.05V10.8533Z" fill="#C30F23"/>
</svg>
