<svg width="26" height="27" viewBox="0 0 26 27" fill="none" xmlns="http://www.w3.org/2000/svg">
<path d="M13.0001 0C5.82084 0 0 6.04469 0 13.5C0 20.9552 5.82084 27 13.0001 27C20.1793 27 26 20.9551 26 13.5C26.0001 6.04469 20.1793 0 13.0001 0ZM19.8649 19.698L18.8241 20.7791C18.6382 20.9718 18.0941 21.0921 18.0766 21.0921C14.7837 21.1219 11.6131 19.7787 9.28356 17.3594C6.94762 14.9322 5.65269 11.628 5.68746 8.1969C5.68746 8.19534 5.80664 7.64645 5.99231 7.45548L7.03314 6.37445C7.41403 5.97708 8.14568 5.79751 8.65822 5.97558L8.87717 6.05142C9.38821 6.22932 9.92475 6.81611 10.066 7.35671L10.5895 9.35227C10.7307 9.89443 10.5403 10.6657 10.1595 11.0613L9.46451 11.7831C10.1469 14.4064 12.1289 16.465 14.6555 17.1753L15.3502 16.4533C15.7328 16.056 16.4753 15.8584 16.9963 16.0048L18.9177 16.5504C19.4383 16.699 20.0033 17.2527 20.1746 17.7832L20.2476 18.0139C20.4173 18.5446 20.2458 19.3042 19.8649 19.698Z" fill="white"/>
</svg>
